<svg xmlns="http://www.w3.org/2000/svg" xmlns:xlink="http://www.w3.org/1999/xlink" width="40" height="40" viewBox="0 0 40 40"><defs><style>.a{fill:#fff;}.b{fill:#fe7742;}.c{clip-path:url(#a);}</style><clipPath id="a"><rect class="a" width="24" height="24"/></clipPath></defs><g transform="translate(-773 -7906)"><circle class="b" cx="20" cy="20" r="20" transform="translate(773 7906)"/><g transform="translate(781 7914)"><g class="c"><path class="a" d="M21,20V15a1,1,0,0,0-1-1H15.91a1,1,0,0,0-.944.67L14.5,16l-.6,1.7a15.207,15.207,0,0,1-7.5-7.5L8,9.6l1.331-.466A1,1,0,0,0,10,8.19V4A1,1,0,0,0,9,3H4A1,1,0,0,0,3,4,17,17,0,0,0,20,21a1,1,0,0,0,1-1M8,5V7.4l-2.4.9A12.573,12.573,0,0,1,5.1,5Zm8.6,11H19v3a19.082,19.082,0,0,1-3.3-.6Z"/></g></g></g></svg>