<svg xmlns="http://www.w3.org/2000/svg" width="100" height="100" viewBox="0 0 100 100"><defs><style>.a,.c{fill:#4050f6;}.a{opacity:0.16;}.b{fill:none;}</style></defs><g transform="translate(-803 2.219)"><rect class="a" width="100" height="100" rx="50" transform="translate(803 -2.219)"/><g transform="translate(829 23.781)"><path class="b" d="M0,0H48V48H0Z"/><path class="c" d="M5.186,8h20v2a2,2,0,0,0,4,0V4a4,4,0,0,0-4-3.98L5.186,0a4.01,4.01,0,0,0-4,4v6a2,2,0,1,0,4,0Z" transform="translate(9 2)"/><path class="c" d="M23.426,29.76l6.34-6.34a1.992,1.992,0,0,0,0-2.817l0,0-6.34-6.34a2.016,2.016,0,0,0-2.84,0,1.992,1.992,0,0,0,0,2.817l0,0L25.526,22l-4.94,4.94a1.992,1.992,0,0,0,0,2.817l0,0a2.017,2.017,0,0,0,2.839,0Z" transform="translate(9 2)"/><path class="c" d="M9.766,26.92,4.846,22l4.92-4.92a1.992,1.992,0,0,0,0-2.817l0,0a2.016,2.016,0,0,0-2.84,0L.585,20.6a1.992,1.992,0,0,0,0,2.817l0,0,6.34,6.34a2.008,2.008,0,0,0,2.84-2.84Z" transform="translate(9 2)"/><path class="c" d="M25.186,36h-20V34a2,2,0,1,0-4,0v6a4.012,4.012,0,0,0,4,4h20a4.012,4.012,0,0,0,4-4V34a2,2,0,0,0-4,0Z" transform="translate(9 2)"/></g></g></svg>