<svg xmlns="http://www.w3.org/2000/svg" width="100" height="100" viewBox="0 0 100 100"><defs><style>.a,.c{fill:#fc4475;}.a{opacity:0.16;}.b{fill:none;}</style></defs><g transform="translate(-1176 2.219)"><rect class="a" width="100" height="100" rx="50" transform="translate(1176 -2.219)"/><g transform="translate(1202 23.781)"><rect class="b" width="48" height="48"/><g transform="translate(4 4)"><path class="c" d="M10.175,10.8l-3.466.268a3.091,3.091,0,0,0-2.356,1.386l-4,6.045a2.142,2.142,0,0,0,1.459,3.3l3.173.491A28.427,28.427,0,0,1,10.175,10.8"/><path class="c" d="M17.709,35.011l.492,3.173a2.141,2.141,0,0,0,3.3,1.459l6.045-4A3.093,3.093,0,0,0,28.93,33.29l.267-3.466a28.4,28.4,0,0,1-11.488,5.187"/><path class="c" d="M16.516,32.812a2.074,2.074,0,0,0,.332-.027,22.928,22.928,0,0,0,4.758-1.35L8.564,18.394a23,23,0,0,0-1.349,4.759,2.048,2.048,0,0,0,.576,1.779l7.277,7.276a2.049,2.049,0,0,0,1.448.6"/><path class="c" d="M36.811,17.734A31.593,31.593,0,0,0,39.953,1.987a2.053,2.053,0,0,0-1.94-1.94C37.515.019,36.925,0,36.26,0A30.964,30.964,0,0,0,22.266,3.189,31.832,31.832,0,0,0,9.6,16.132a1.074,1.074,0,0,1,.109.095L23.774,30.289a1.2,1.2,0,0,1,.094.109A31.838,31.838,0,0,0,36.811,17.734M23.257,8.456A5.861,5.861,0,1,1,21.541,12.6a5.867,5.867,0,0,1,1.716-4.143"/><path class="c" d="M24.914,15.085A3.518,3.518,0,1,0,23.885,12.6a3.521,3.521,0,0,0,1.029,2.486"/><path class="c" d="M1.2,32.963a1.168,1.168,0,0,0,.829-.343l3.826-3.826a1.172,1.172,0,0,0-1.657-1.657L.367,30.963a1.172,1.172,0,0,0,.829,2"/><path class="c" d="M9.357,30.643a1.173,1.173,0,0,0-1.657,0L.344,38A1.172,1.172,0,0,0,2,39.657L9.357,32.3a1.171,1.171,0,0,0,0-1.657"/><path class="c" d="M11.2,34.15,7.379,37.976a1.172,1.172,0,0,0,1.658,1.657l3.825-3.826A1.172,1.172,0,1,0,11.2,34.15"/></g></g></g></svg>