<svg xmlns="http://www.w3.org/2000/svg" width="100" height="100" viewBox="0 0 100 100"><defs><style>.a,.d{fill:#fe7742;}.a{opacity:0.16;}.b,.c{fill:none;}.c{opacity:0.87;}</style></defs><g transform="translate(-803 2.219)"><rect class="a" width="100" height="100" rx="50" transform="translate(803 -2.219)"/><g transform="translate(829 23.781)"><path class="b" d="M0,0H48V48H0Z"/><path class="c" d="M0,0H48V48H0Z"/><path class="d" d="M32,15H30V11a10,10,0,0,0-20,0v4H8a4.012,4.012,0,0,0-4,4V39a4.012,4.012,0,0,0,4,4H32a4.012,4.012,0,0,0,4-4V19A4.012,4.012,0,0,0,32,15ZM20,33a4,4,0,1,1,4-4A4.012,4.012,0,0,1,20,33ZM14,15V11a6,6,0,0,1,12,0v4Z" transform="translate(4 1)"/></g></g></svg>