<svg xmlns="http://www.w3.org/2000/svg" xmlns:xlink="http://www.w3.org/1999/xlink" width="24" height="24" viewBox="0 0 24 24"><defs><style>.a{fill:none;}.b{clip-path:url(#a);}</style><clipPath id="a"><rect class="a" width="24" height="24"/></clipPath></defs><g class="b"><path d="M2,6V18a2,2,0,0,0,2,2H20a2,2,0,0,0,2-2V6a2,2,0,0,0-2-2H4A2,2,0,0,0,2,6M19,18H5a1,1,0,0,1-1-1V7A1,1,0,0,1,5,6H19a1,1,0,0,1,1,1V17a1,1,0,0,1-1,1"/><path d="M17.818,9.532h0a1.03,1.03,0,0,0-1.432-.381L12,11.8,7.612,9.151a1.028,1.028,0,0,0-1.063,1.761l4.919,2.968a1.034,1.034,0,0,0,1.063,0l4.919-2.968a1.029,1.029,0,0,0,.368-1.38"/></g></svg>