<svg xmlns="http://www.w3.org/2000/svg" xmlns:xlink="http://www.w3.org/1999/xlink" width="24" height="24" viewBox="0 0 24 24"><defs><style>.a{fill:#fe7742;}.b{clip-path:url(#a);}</style><clipPath id="a"><rect class="a" width="24" height="24"/></clipPath></defs><g class="b"><path class="a" d="M7.5,11h9a1,1,0,0,1,0,2h-9a1,1,0,0,1,0-2"/><path class="a" d="M7.5,7h9a1,1,0,0,1,0,2h-9a1,1,0,0,1,0-2"/><path class="a" d="M20,2H4A2,2,0,0,0,2,4V16a2,2,0,0,0,2,2H6v4l4-4H20a2,2,0,0,0,2-2V4a2,2,0,0,0-2-2M19,16H10.028a2,2,0,0,0-1.414.586L8,17.2V16H5a1,1,0,0,1-1-1V5A1,1,0,0,1,5,4H19a1,1,0,0,1,1,1V15a1,1,0,0,1-1,1"/></g></svg>